<svg width="500" height="500" version="1.1" xmlns="http://www.w3.org/2000/svg"><path fill="rgb(251,251,251)" stroke="rgb(251,251,251)" stroke-width="1" opacity="1" d="M 245.5 87 L 255 87.5 L 245.5 88 L 245.5 87 Z "></path><path fill="rgb(251,251,251)" stroke="rgb(251,251,251)" stroke-width="1" opacity="1" d="M 147.5 123 L 146.5 125 L 147.5 123 Z "></path><path fill="rgb(251,251,251)" stroke="rgb(251,251,251)" stroke-width="1" opacity="1" d="M 352.5 123 L 353.5 125 L 352.5 123 Z "></path><path fill="rgb(251,251,251)" stroke="rgb(251,251,251)" stroke-width="1" opacity="1" d="M 138.5 131 L 136.5 134 L 138.5 131 Z "></path><path fill="rgb(251,251,251)" stroke="rgb(251,251,251)" stroke-width="1" opacity="1" d="M 362.5 132 L 363.5 134 L 362.5 132 Z "></path><path fill="rgb(251,251,251)" stroke="rgb(251,251,251)" stroke-width="1" opacity="1" d="M 141.5 135 L 140.5 137 L 141.5 135 Z "></path><path fill="rgb(251,251,251)" stroke="rgb(251,251,251)" stroke-width="1" opacity="1" d="M 358.5 135 L 359.5 137 L 358.5 135 Z "></path><path fill="rgb(251,251,251)" stroke="rgb(251,251,251)" stroke-width="1" opacity="1" d="M 133.5 136 L 132.5 138 L 133.5 136 Z "></path><path fill="rgb(251,251,251)" stroke="rgb(251,251,251)" stroke-width="1" opacity="1" d="M 366.5 136 L 367.5 138 L 366.5 136 Z "></path><path fill="rgb(251,251,251)" stroke="rgb(251,251,251)" stroke-width="1" opacity="1" d="M 136.5 140 L 135.5 142 L 136.5 140 Z "></path><path fill="rgb(251,251,251)" stroke="rgb(251,251,251)" stroke-width="1" opacity="1" d="M 363.5 140 L 364.5 142 L 363.5 140 Z "></path><path fill="rgb(251,251,251)" stroke="rgb(251,251,251)" stroke-width="1" opacity="1" d="M 158.5 220 L 156.5 223 L 158.5 220 Z "></path><path fill="rgb(251,251,251)" stroke="rgb(251,251,251)" stroke-width="1" opacity="1" d="M 87.5 246 L 88 254.5 L 87 254.5 L 87.5 246 Z "></path><path fill="rgb(251,251,251)" stroke="rgb(251,251,251)" stroke-width="1" opacity="1" d="M 412.5 246 L 413 253.5 L 412 253.5 L 412.5 246 Z "></path><path fill="rgb(251,251,251)" stroke="rgb(251,251,251)" stroke-width="1" opacity="1" d="M 357.5 247 L 356.5 249 L 357.5 247 Z "></path><path fill="rgb(251,251,251)" stroke="rgb(251,251,251)" stroke-width="1" opacity="1" d="M 194.5 249 L 190.5 254 L 194.5 249 Z "></path><path fill="rgb(251,251,251)" stroke="rgb(251,251,251)" stroke-width="1" opacity="1" d="M 231.5 253 L 232.5 255 L 231.5 253 Z "></path><path fill="rgb(251,251,251)" stroke="rgb(251,251,251)" stroke-width="1" opacity="1" d="M 316.5 253 L 315.5 255 L 316.5 253 Z "></path><path fill="rgb(251,251,251)" stroke="rgb(251,251,251)" stroke-width="1" opacity="1" d="M 341.5 256 L 340.5 258 L 341.5 256 Z "></path><path fill="rgb(251,251,251)" stroke="rgb(251,251,251)" stroke-width="1" opacity="1" d="M 186.5 261 L 184.5 264 L 186.5 261 Z "></path><path fill="rgb(251,251,251)" stroke="rgb(251,251,251)" stroke-width="1" opacity="1" d="M 179.5 268 L 178.5 270 L 179.5 268 Z "></path><path fill="rgb(251,251,251)" stroke="rgb(251,251,251)" stroke-width="1" opacity="1" d="M 135.5 358 L 136.5 360 L 135.5 358 Z "></path><path fill="rgb(251,251,251)" stroke="rgb(251,251,251)" stroke-width="1" opacity="1" d="M 364.5 358 L 363.5 360 L 364.5 358 Z "></path><path fill="rgb(251,251,251)" stroke="rgb(251,251,251)" stroke-width="1" opacity="1" d="M 131.5 361 L 133.5 364 L 131.5 361 Z "></path><path fill="rgb(251,251,251)" stroke="rgb(251,251,251)" stroke-width="1" opacity="1" d="M 368.5 361 L 366.5 364 L 368.5 361 Z "></path><path fill="rgb(251,251,251)" stroke="rgb(251,251,251)" stroke-width="1" opacity="1" d="M 140.5 363 L 141.5 365 L 140.5 363 Z "></path><path fill="rgb(251,251,251)" stroke="rgb(251,251,251)" stroke-width="1" opacity="1" d="M 359.5 363 L 358.5 365 L 359.5 363 Z "></path><path fill="rgb(251,251,251)" stroke="rgb(251,251,251)" stroke-width="1" opacity="1" d="M 136.5 366 L 138.5 369 L 136.5 366 Z "></path><path fill="rgb(251,251,251)" stroke="rgb(251,251,251)" stroke-width="1" opacity="1" d="M 363.5 366 L 362.5 368 L 363.5 366 Z "></path><path fill="rgb(251,251,251)" stroke="rgb(251,251,251)" stroke-width="1" opacity="1" d="M 239.5 412 L 261 412.5 L 239.5 413 L 239.5 412 Z "></path><path fill="rgb(255,255,255)" stroke="rgb(255,255,255)" stroke-width="1" opacity="1" d="M 0 0 L 500 0 L 500 500 L 0 500 L 0 0 Z M 246 87 L 245 88 L 232 88 L 231 89 L 218 90 L 202 94 L 186 100 Q 159 112 139 131 Q 116 152 102 182 L 94 203 L 92 214 L 90 218 L 90 224 L 88 231 L 88 246 L 87 247 L 88 270 L 90 277 L 90 283 L 99 312 Q 111 341 131 362 Q 153 385 184 399 L 218 410 L 239 412 L 240 413 L 261 413 L 262 412 L 277 411 L 310 402 Q 340 389 363 368 Q 387 345 401 312 L 410 282 L 411 271 L 412 270 L 412 255 L 413 254 L 412 231 L 410 224 L 410 219 L 401 189 Q 389 159 368 138 Q 344 112 310 98 L 283 90 L 270 89 L 269 88 L 246 87 Z "></path><path fill="rgb(255,255,255)" stroke="rgb(255,255,255)" stroke-width="1" opacity="1" d="M 244.5 92 L 268.5 93 L 269.5 94 L 282.5 95 L 308.5 103 Q 340.7 116.3 363 139.5 Q 385.5 162 398 194.5 L 406 224.5 L 408 255.5 L 407 256.5 L 407 268.5 L 406 269.5 L 405 281.5 L 397 308.5 Q 383.7 340.7 360.5 363 Q 338.9 384.4 308.5 397 L 277.5 406 L 270.5 406 L 261.5 408 L 238.5 408 L 237.5 407 L 222.5 406 L 206.5 402 L 182.5 393 Q 156.2 380.3 137 360.5 Q 115.6 338.9 103 308.5 L 94 276.5 L 93 257.5 L 92 256.5 L 92 243.5 L 93 242.5 L 93 231.5 L 94 230.5 L 95 218.5 L 103 191.5 Q 116.3 159.3 139.5 137 Q 161.1 115.6 191.5 103 L 217.5 95 L 223.5 95 L 231.5 93 L 243.5 93 L 244.5 92 Z M 162 214 L 156 217 Q 149 223 146 232 L 142 250 L 143 262 L 146 268 L 151 271 L 159 271 L 166 267 Q 176 259 181 246 L 182 246 L 181 262 Q 171 270 166 284 L 167 290 Q 168 292 173 291 Q 178 287 180 281 L 184 265 L 196 253 L 196 259 L 199 260 L 202 259 L 205 253 L 204 246 L 204 244 L 203 241 L 198 245 Q 199 248 197 247 L 185 258 Q 184 253 186 252 L 186 243 L 185 242 Q 186 238 183 239 L 179 243 L 170 259 Q 165 265 158 268 L 151 267 L 146 258 Q 146 238 154 226 L 161 219 L 166 219 L 170 228 L 170 242 L 169 243 L 169 250 L 172 250 L 174 241 Q 176 226 171 219 Q 169 214 162 214 Z M 299 215 L 297 217 L 298 229 L 299 230 L 299 241 L 298 242 L 297 256 L 294 269 L 289 281 Q 290 283 288 282 L 286 281 L 284 272 L 283 253 L 282 252 L 282 238 L 280 227 Q 279 224 275 225 L 268 255 L 267 275 L 266 276 Q 265 285 269 289 L 270 287 L 269 285 L 271 257 L 277 232 L 278 237 L 278 253 L 279 254 L 280 270 L 284 284 Q 285 287 289 286 L 292 283 L 296 273 L 301 250 L 302 233 L 307 229 L 319 226 L 318 232 L 318 248 L 311 255 L 307 254 Q 305 247 308 246 Q 310 240 306 241 L 303 247 Q 302 256 308 259 L 314 257 L 318 252 L 318 268 L 321 269 L 321 240 L 322 239 L 322 228 L 323 226 Q 330 222 340 223 L 339 220 L 331 220 L 330 221 L 324 221 L 324 216 L 323 216 L 320 222 L 319 223 Q 308 224 301 228 L 300 217 L 299 215 Z M 210 221 L 208 227 L 207 244 L 206 245 L 206 263 L 207 264 Q 206 266 209 265 L 214 255 L 216 265 L 220 266 L 216 252 Q 216 244 221 242 L 221 240 L 217 240 L 211 252 L 210 252 L 211 233 L 213 226 Q 215 219 210 221 Z M 247 228 L 243 235 L 241 249 L 237 252 L 234 252 L 233 250 L 233 243 L 231 243 L 225 252 L 224 252 L 224 249 L 227 243 Q 228 240 224 241 L 220 250 L 221 255 Q 220 258 225 256 L 228 252 L 231 250 Q 230 254 233 255 Q 239 256 241 253 L 242 264 Q 243 266 247 265 L 255 250 Q 256 246 254 247 L 246 262 L 244 259 L 245 245 L 248 234 Q 249 227 247 228 Z M 327 228 L 324 241 L 324 264 L 325 265 L 325 266 L 329 266 L 333 252 Q 337 251 335 257 Q 336 259 341 258 L 344 254 L 345 258 L 348 259 L 352 258 L 360 250 Q 361 246 358 247 L 356 250 L 349 256 L 347 254 Q 346 246 348 243 L 346 241 Q 342 243 343 250 L 339 255 Q 339 248 336 245 L 334 246 Q 329 250 328 259 L 327 259 L 328 240 L 330 233 Q 332 226 327 228 Z M 308 231 Q 305 232 306 236 L 310 236 L 310 235 L 310 233 Q 311 230 308 231 Z M 348 231 L 346 233 Q 344 238 350 236 L 350 231 L 348 231 Z "></path><path fill="rgb(255,255,255)" stroke="rgb(255,255,255)" stroke-width="1" opacity="1" d="M 200.5 250 L 201 253.5 L 199.5 256 L 199 253.5 L 200.5 250 Z "></path><path fill="rgb(255,255,255)" stroke="rgb(255,255,255)" stroke-width="1" opacity="1" d="M 178.5 270 L 179 272.5 L 173 287 L 170.5 288 L 169 284.5 Q 171.8 275.3 178.5 270 Z "></path><path fill="rgb(237,237,237)" stroke="rgb(237,237,237)" stroke-width="1" opacity="1" d="M 240.5 92 L 243 92.5 L 240.5 93 L 240.5 92 Z "></path><path fill="rgb(237,237,237)" stroke="rgb(237,237,237)" stroke-width="1" opacity="1" d="M 257.5 92 L 260 92.5 L 257.5 93 L 257.5 92 Z "></path><path fill="rgb(237,237,237)" stroke="rgb(237,237,237)" stroke-width="1" opacity="1" d="M 145.5 125 L 144.5 127 L 145.5 125 Z "></path><path fill="rgb(237,237,237)" stroke="rgb(237,237,237)" stroke-width="1" opacity="1" d="M 354.5 125 L 356.5 128 L 354.5 125 Z "></path><path fill="rgb(237,237,237)" stroke="rgb(237,237,237)" stroke-width="1" opacity="1" d="M 144.5 132 L 142.5 135 L 144.5 132 Z "></path><path fill="rgb(237,237,237)" stroke="rgb(237,237,237)" stroke-width="1" opacity="1" d="M 355.5 132 L 357.5 135 L 355.5 132 Z "></path><path fill="rgb(237,237,237)" stroke="rgb(237,237,237)" stroke-width="1" opacity="1" d="M 135.5 134 L 134.5 136 L 135.5 134 Z "></path><path fill="rgb(237,237,237)" stroke="rgb(237,237,237)" stroke-width="1" opacity="1" d="M 364.5 134 L 365.5 136 L 364.5 134 Z "></path><path fill="rgb(237,237,237)" stroke="rgb(237,237,237)" stroke-width="1" opacity="1" d="M 134.5 142 L 132.5 145 L 134.5 142 Z "></path><path fill="rgb(237,237,237)" stroke="rgb(237,237,237)" stroke-width="1" opacity="1" d="M 365.5 142 L 367.5 145 L 365.5 142 Z "></path><path fill="rgb(237,237,237)" stroke="rgb(237,237,237)" stroke-width="1" opacity="1" d="M 126.5 144 L 125.5 146 L 126.5 144 Z "></path><path fill="rgb(237,237,237)" stroke="rgb(237,237,237)" stroke-width="1" opacity="1" d="M 373.5 144 L 374.5 146 L 373.5 144 Z "></path><path fill="rgb(237,237,237)" stroke="rgb(237,237,237)" stroke-width="1" opacity="1" d="M 168.5 216 L 169.5 218 L 168.5 216 Z "></path><path fill="rgb(237,237,237)" stroke="rgb(237,237,237)" stroke-width="1" opacity="1" d="M 155.5 217 L 153.5 220 L 155.5 217 Z "></path><path fill="rgb(237,237,237)" stroke="rgb(237,237,237)" stroke-width="1" opacity="1" d="M 92.5 239 L 93 241.5 L 92 241.5 L 92.5 239 Z "></path><path fill="rgb(237,237,237)" stroke="rgb(237,237,237)" stroke-width="1" opacity="1" d="M 407.5 239 L 408 241.5 L 407 241.5 L 407.5 239 Z "></path><path fill="rgb(237,237,237)" stroke="rgb(237,237,237)" stroke-width="1" opacity="1" d="M 305.5 241 L 304.5 243 L 305.5 241 Z "></path><path fill="rgb(237,237,237)" stroke="rgb(237,237,237)" stroke-width="1" opacity="1" d="M 182.5 244 L 183 246.5 L 182 246.5 L 182.5 244 Z "></path><path fill="rgb(237,237,237)" stroke="rgb(237,237,237)" stroke-width="1" opacity="1" d="M 206.5 245 L 207 248.5 L 206 248.5 L 206.5 245 Z "></path><path fill="rgb(237,237,237)" stroke="rgb(237,237,237)" stroke-width="1" opacity="1" d="M 196.5 247 L 195.5 249 L 196.5 247 Z "></path><path fill="rgb(237,237,237)" stroke="rgb(237,237,237)" stroke-width="1" opacity="1" d="M 201.5 248 L 202 250.5 L 201 250.5 L 201.5 248 Z "></path><path fill="rgb(237,237,237)" stroke="rgb(237,237,237)" stroke-width="1" opacity="1" d="M 337.5 250 L 338 252.5 L 337 252.5 L 337.5 250 Z "></path><path fill="rgb(237,237,237)" stroke="rgb(237,237,237)" stroke-width="1" opacity="1" d="M 314.5 251 L 312.5 254 L 314.5 251 Z "></path><path fill="rgb(237,237,237)" stroke="rgb(237,237,237)" stroke-width="1" opacity="1" d="M 189.5 254 L 185.5 259 L 189.5 254 Z "></path><path fill="rgb(237,237,237)" stroke="rgb(237,237,237)" stroke-width="1" opacity="1" d="M 190.5 257 L 187.5 261 L 190.5 257 Z "></path><path fill="rgb(237,237,237)" stroke="rgb(237,237,237)" stroke-width="1" opacity="1" d="M 92.5 258 L 93 260.5 L 92 260.5 L 92.5 258 Z "></path><path fill="rgb(237,237,237)" stroke="rgb(237,237,237)" stroke-width="1" opacity="1" d="M 407.5 258 L 408 260.5 L 407 260.5 L 407.5 258 Z "></path><path fill="rgb(237,237,237)" stroke="rgb(237,237,237)" stroke-width="1" opacity="1" d="M 147.5 268 L 148.5 270 L 147.5 268 Z "></path><path fill="rgb(237,237,237)" stroke="rgb(237,237,237)" stroke-width="1" opacity="1" d="M 266.5 275 L 267 277.5 L 266 277.5 L 266.5 275 Z "></path><path fill="rgb(237,237,237)" stroke="rgb(237,237,237)" stroke-width="1" opacity="1" d="M 124.5 353 L 126.5 356 L 124.5 353 Z "></path><path fill="rgb(237,237,237)" stroke="rgb(237,237,237)" stroke-width="1" opacity="1" d="M 375.5 353 L 373.5 356 L 375.5 353 Z "></path><path fill="rgb(237,237,237)" stroke="rgb(237,237,237)" stroke-width="1" opacity="1" d="M 132.5 355 L 134.5 358 L 132.5 355 Z "></path><path fill="rgb(237,237,237)" stroke="rgb(237,237,237)" stroke-width="1" opacity="1" d="M 366.5 356 L 365.5 358 L 366.5 356 Z "></path><path fill="rgb(237,237,237)" stroke="rgb(237,237,237)" stroke-width="1" opacity="1" d="M 134.5 364 L 135.5 366 L 134.5 364 Z "></path><path fill="rgb(237,237,237)" stroke="rgb(237,237,237)" stroke-width="1" opacity="1" d="M 365.5 364 L 364.5 366 L 365.5 364 Z "></path><path fill="rgb(237,237,237)" stroke="rgb(237,237,237)" stroke-width="1" opacity="1" d="M 142.5 365 L 144.5 368 L 142.5 365 Z "></path><path fill="rgb(237,237,237)" stroke="rgb(237,237,237)" stroke-width="1" opacity="1" d="M 357.5 365 L 355.5 368 L 357.5 365 Z "></path><path fill="rgb(237,237,237)" stroke="rgb(237,237,237)" stroke-width="1" opacity="1" d="M 144.5 373 L 145.5 375 L 144.5 373 Z "></path><path fill="rgb(237,237,237)" stroke="rgb(237,237,237)" stroke-width="1" opacity="1" d="M 355.5 373 L 354.5 375 L 355.5 373 Z "></path><path fill="rgb(136,136,136)" stroke="rgb(136,136,136)" stroke-width="1" opacity="1" d="M 239.5 88 L 243 88.5 L 239.5 89 L 239.5 88 Z "></path><path fill="rgb(136,136,136)" stroke="rgb(136,136,136)" stroke-width="1" opacity="1" d="M 257.5 88 L 261 88.5 L 257.5 89 L 257.5 88 Z "></path><path fill="rgb(136,136,136)" stroke="rgb(136,136,136)" stroke-width="1" opacity="1" d="M 247.5 91 L 253 91.5 L 247.5 92 L 247.5 91 Z "></path><path fill="rgb(136,136,136)" stroke="rgb(136,136,136)" stroke-width="1" opacity="1" d="M 159.5 115 L 158.5 117 L 159.5 115 Z "></path><path fill="rgb(136,136,136)" stroke="rgb(136,136,136)" stroke-width="1" opacity="1" d="M 340.5 115 L 341.5 117 L 340.5 115 Z "></path><path fill="rgb(136,136,136)" stroke="rgb(136,136,136)" stroke-width="1" opacity="1" d="M 147.5 124 L 145.5 127 L 147.5 124 Z "></path><path fill="rgb(136,136,136)" stroke="rgb(136,136,136)" stroke-width="1" opacity="1" d="M 352.5 124 L 354.5 127 L 352.5 124 Z "></path><path fill="rgb(136,136,136)" stroke="rgb(136,136,136)" stroke-width="1" opacity="1" d="M 137.5 133 L 133.5 138 L 137.5 133 Z "></path><path fill="rgb(136,136,136)" stroke="rgb(136,136,136)" stroke-width="1" opacity="1" d="M 142.5 133 L 139.5 137 L 142.5 133 Z "></path><path fill="rgb(136,136,136)" stroke="rgb(136,136,136)" stroke-width="1" opacity="1" d="M 357.5 133 L 360.5 137 L 357.5 133 Z "></path><path fill="rgb(136,136,136)" stroke="rgb(136,136,136)" stroke-width="1" opacity="1" d="M 362.5 133 L 366.5 138 L 362.5 133 Z "></path><path fill="rgb(136,136,136)" stroke="rgb(136,136,136)" stroke-width="1" opacity="1" d="M 136.5 139 L 133.5 143 L 136.5 139 Z "></path><path fill="rgb(136,136,136)" stroke="rgb(136,136,136)" stroke-width="1" opacity="1" d="M 364.5 140 L 366.5 143 L 364.5 140 Z "></path><path fill="rgb(136,136,136)" stroke="rgb(136,136,136)" stroke-width="1" opacity="1" d="M 126.5 145 L 124.5 148 L 126.5 145 Z "></path><path fill="rgb(136,136,136)" stroke="rgb(136,136,136)" stroke-width="1" opacity="1" d="M 373.5 145 L 375.5 148 L 373.5 145 Z "></path><path fill="rgb(136,136,136)" stroke="rgb(136,136,136)" stroke-width="1" opacity="1" d="M 122.5 150 L 121.5 152 L 122.5 150 Z "></path><path fill="rgb(136,136,136)" stroke="rgb(136,136,136)" stroke-width="1" opacity="1" d="M 377.5 150 L 378.5 152 L 377.5 150 Z "></path><path fill="rgb(136,136,136)" stroke="rgb(136,136,136)" stroke-width="1" opacity="1" d="M 119.5 154 L 118.5 156 L 119.5 154 Z "></path><path fill="rgb(136,136,136)" stroke="rgb(136,136,136)" stroke-width="1" opacity="1" d="M 380.5 154 L 381.5 156 L 380.5 154 Z "></path><path fill="rgb(136,136,136)" stroke="rgb(136,136,136)" stroke-width="1" opacity="1" d="M 378.5 157 L 379.5 159 L 378.5 157 Z "></path><path fill="rgb(136,136,136)" stroke="rgb(136,136,136)" stroke-width="1" opacity="1" d="M 116.5 158 L 115.5 160 L 116.5 158 Z "></path><path fill="rgb(136,136,136)" stroke="rgb(136,136,136)" stroke-width="1" opacity="1" d="M 383.5 158 L 384.5 160 L 383.5 158 Z "></path><path fill="rgb(136,136,136)" stroke="rgb(136,136,136)" stroke-width="1" opacity="1" d="M 318.5 236 L 319 239.5 L 318 239.5 L 318.5 236 Z "></path><path fill="rgb(136,136,136)" stroke="rgb(136,136,136)" stroke-width="1" opacity="1" d="M 88.5 239 L 89 242.5 L 88 242.5 L 88.5 239 Z "></path><path fill="rgb(136,136,136)" stroke="rgb(136,136,136)" stroke-width="1" opacity="1" d="M 183.5 239 L 184.5 241 L 183.5 239 Z "></path><path fill="rgb(136,136,136)" stroke="rgb(136,136,136)" stroke-width="1" opacity="1" d="M 411.5 239 L 412 242.5 L 411 242.5 L 411.5 239 Z "></path><path fill="rgb(136,136,136)" stroke="rgb(136,136,136)" stroke-width="1" opacity="1" d="M 91.5 246 L 92 253.5 L 91 253.5 L 91.5 246 Z "></path><path fill="rgb(136,136,136)" stroke="rgb(136,136,136)" stroke-width="1" opacity="1" d="M 408.5 246 L 409 253.5 L 408 253.5 L 408.5 246 Z "></path><path fill="rgb(136,136,136)" stroke="rgb(136,136,136)" stroke-width="1" opacity="1" d="M 306.5 249 L 307 251.5 L 306 251.5 L 306.5 249 Z "></path><path fill="rgb(136,136,136)" stroke="rgb(136,136,136)" stroke-width="1" opacity="1" d="M 356.5 252 L 355.5 254 L 356.5 252 Z "></path><path fill="rgb(136,136,136)" stroke="rgb(136,136,136)" stroke-width="1" opacity="1" d="M 305.5 256 L 306.5 258 L 305.5 256 Z "></path><path fill="rgb(136,136,136)" stroke="rgb(136,136,136)" stroke-width="1" opacity="1" d="M 88.5 257 L 89 260.5 L 88 260.5 L 88.5 257 Z "></path><path fill="rgb(136,136,136)" stroke="rgb(136,136,136)" stroke-width="1" opacity="1" d="M 411.5 257 L 412 260.5 L 411 260.5 L 411.5 257 Z "></path><path fill="rgb(136,136,136)" stroke="rgb(136,136,136)" stroke-width="1" opacity="1" d="M 178.5 265 L 177.5 267 L 178.5 265 Z "></path><path fill="rgb(136,136,136)" stroke="rgb(136,136,136)" stroke-width="1" opacity="1" d="M 115.5 340 L 116.5 342 L 115.5 340 Z "></path><path fill="rgb(136,136,136)" stroke="rgb(136,136,136)" stroke-width="1" opacity="1" d="M 384.5 340 L 383.5 342 L 384.5 340 Z "></path><path fill="rgb(136,136,136)" stroke="rgb(136,136,136)" stroke-width="1" opacity="1" d="M 381.5 344 L 380.5 346 L 381.5 344 Z "></path><path fill="rgb(136,136,136)" stroke="rgb(136,136,136)" stroke-width="1" opacity="1" d="M 123.5 345 L 124.5 347 L 123.5 345 Z "></path><path fill="rgb(136,136,136)" stroke="rgb(136,136,136)" stroke-width="1" opacity="1" d="M 126.5 349 L 127.5 351 L 126.5 349 Z "></path><path fill="rgb(136,136,136)" stroke="rgb(136,136,136)" stroke-width="1" opacity="1" d="M 373.5 349 L 372.5 351 L 373.5 349 Z "></path><path fill="rgb(136,136,136)" stroke="rgb(136,136,136)" stroke-width="1" opacity="1" d="M 124.5 352 L 125.5 354 L 124.5 352 Z "></path><path fill="rgb(136,136,136)" stroke="rgb(136,136,136)" stroke-width="1" opacity="1" d="M 375.5 352 L 374.5 354 L 375.5 352 Z "></path><path fill="rgb(136,136,136)" stroke="rgb(136,136,136)" stroke-width="1" opacity="1" d="M 133.5 357 L 136.5 361 L 133.5 357 Z "></path><path fill="rgb(136,136,136)" stroke="rgb(136,136,136)" stroke-width="1" opacity="1" d="M 365.5 358 L 363.5 361 L 365.5 358 Z "></path><path fill="rgb(136,136,136)" stroke="rgb(136,136,136)" stroke-width="1" opacity="1" d="M 133.5 362 L 137.5 367 L 133.5 362 Z "></path><path fill="rgb(136,136,136)" stroke="rgb(136,136,136)" stroke-width="1" opacity="1" d="M 366.5 362 L 362.5 367 L 366.5 362 Z "></path><path fill="rgb(136,136,136)" stroke="rgb(136,136,136)" stroke-width="1" opacity="1" d="M 139.5 363 L 142.5 367 L 139.5 363 Z "></path><path fill="rgb(136,136,136)" stroke="rgb(136,136,136)" stroke-width="1" opacity="1" d="M 360.5 363 L 357.5 367 L 360.5 363 Z "></path><path fill="rgb(136,136,136)" stroke="rgb(136,136,136)" stroke-width="1" opacity="1" d="M 145.5 373 L 146.5 375 L 145.5 373 Z "></path><path fill="rgb(136,136,136)" stroke="rgb(136,136,136)" stroke-width="1" opacity="1" d="M 354.5 373 L 352.5 376 L 354.5 373 Z "></path><path fill="rgb(136,136,136)" stroke="rgb(136,136,136)" stroke-width="1" opacity="1" d="M 349.5 377 L 348.5 379 L 349.5 377 Z "></path><path fill="rgb(136,136,136)" stroke="rgb(136,136,136)" stroke-width="1" opacity="1" d="M 345.5 380 L 344.5 382 L 345.5 380 Z "></path><path fill="rgb(136,136,136)" stroke="rgb(136,136,136)" stroke-width="1" opacity="1" d="M 158.5 383 L 159.5 385 L 158.5 383 Z "></path><path fill="rgb(136,136,136)" stroke="rgb(136,136,136)" stroke-width="1" opacity="1" d="M 341.5 383 L 340.5 385 L 341.5 383 Z "></path><path fill="rgb(136,136,136)" stroke="rgb(136,136,136)" stroke-width="1" opacity="1" d="M 242.5 408 L 258 408.5 L 242.5 409 L 242.5 408 Z "></path><path fill="rgb(207,207,207)" stroke="rgb(207,207,207)" stroke-width="1" opacity="1" d="M 236.5 92 L 240 92.5 L 236.5 93 L 236.5 92 Z "></path><path fill="rgb(207,207,207)" stroke="rgb(207,207,207)" stroke-width="1" opacity="1" d="M 260.5 92 L 264 92.5 L 260.5 93 L 260.5 92 Z "></path><path fill="rgb(207,207,207)" stroke="rgb(207,207,207)" stroke-width="1" opacity="1" d="M 143.5 127 L 141.5 130 L 143.5 127 Z "></path><path fill="rgb(207,207,207)" stroke="rgb(207,207,207)" stroke-width="1" opacity="1" d="M 357.5 128 L 359.5 131 L 357.5 128 Z "></path><path fill="rgb(207,207,207)" stroke="rgb(207,207,207)" stroke-width="1" opacity="1" d="M 146.5 130 L 145.5 132 L 146.5 130 Z "></path><path fill="rgb(207,207,207)" stroke="rgb(207,207,207)" stroke-width="1" opacity="1" d="M 353.5 130 L 354.5 132 L 353.5 130 Z "></path><path fill="rgb(207,207,207)" stroke="rgb(207,207,207)" stroke-width="1" opacity="1" d="M 129.5 141 L 127.5 144 L 129.5 141 Z "></path><path fill="rgb(207,207,207)" stroke="rgb(207,207,207)" stroke-width="1" opacity="1" d="M 370.5 141 L 372.5 144 L 370.5 141 Z "></path><path fill="rgb(207,207,207)" stroke="rgb(207,207,207)" stroke-width="1" opacity="1" d="M 131.5 145 L 129.5 148 L 131.5 145 Z "></path><path fill="rgb(207,207,207)" stroke="rgb(207,207,207)" stroke-width="1" opacity="1" d="M 368.5 145 L 369.5 147 L 368.5 145 Z "></path><path fill="rgb(207,207,207)" stroke="rgb(207,207,207)" stroke-width="1" opacity="1" d="M 303.5 230 L 302 232.5 L 301.5 235 L 301 232.5 L 303.5 230 Z "></path><path fill="rgb(207,207,207)" stroke="rgb(207,207,207)" stroke-width="1" opacity="1" d="M 92.5 235 L 93 238.5 L 92 238.5 L 92.5 235 Z "></path><path fill="rgb(207,207,207)" stroke="rgb(207,207,207)" stroke-width="1" opacity="1" d="M 407.5 235 L 408 238.5 L 407 238.5 L 407.5 235 Z "></path><path fill="rgb(207,207,207)" stroke="rgb(207,207,207)" stroke-width="1" opacity="1" d="M 345.5 241 L 347 241.5 L 344.5 243 L 345.5 241 Z "></path><path fill="rgb(207,207,207)" stroke="rgb(207,207,207)" stroke-width="1" opacity="1" d="M 185.5 243 L 186 249.5 L 185 249.5 L 185.5 243 Z "></path><path fill="rgb(207,207,207)" stroke="rgb(207,207,207)" stroke-width="1" opacity="1" d="M 327.5 246 L 328 248.5 L 327 248.5 L 327.5 246 Z "></path><path fill="rgb(207,207,207)" stroke="rgb(207,207,207)" stroke-width="1" opacity="1" d="M 206.5 249 L 207 259.5 L 206 259.5 L 206.5 249 Z "></path><path fill="rgb(207,207,207)" stroke="rgb(207,207,207)" stroke-width="1" opacity="1" d="M 346.5 249 L 347 251.5 L 346 251.5 L 346.5 249 Z "></path><path fill="rgb(207,207,207)" stroke="rgb(207,207,207)" stroke-width="1" opacity="1" d="M 220.5 250 L 221 252.5 L 220 252.5 L 220.5 250 Z "></path><path fill="rgb(207,207,207)" stroke="rgb(207,207,207)" stroke-width="1" opacity="1" d="M 142.5 251 L 143 254.5 L 142 254.5 L 142.5 251 Z "></path><path fill="rgb(207,207,207)" stroke="rgb(207,207,207)" stroke-width="1" opacity="1" d="M 209.5 251 L 210 254.5 L 209 254.5 L 209.5 251 Z "></path><path fill="rgb(207,207,207)" stroke="rgb(207,207,207)" stroke-width="1" opacity="1" d="M 353.5 252 L 352.5 254 L 353.5 252 Z "></path><path fill="rgb(207,207,207)" stroke="rgb(207,207,207)" stroke-width="1" opacity="1" d="M 194.5 253 L 191.5 257 L 194.5 253 Z "></path><path fill="rgb(207,207,207)" stroke="rgb(207,207,207)" stroke-width="1" opacity="1" d="M 226.5 253 L 224.5 256 L 226.5 253 Z "></path><path fill="rgb(207,207,207)" stroke="rgb(207,207,207)" stroke-width="1" opacity="1" d="M 92.5 261 L 93 264.5 L 92 264.5 L 92.5 261 Z "></path><path fill="rgb(207,207,207)" stroke="rgb(207,207,207)" stroke-width="1" opacity="1" d="M 170.5 261 L 167.5 265 L 170.5 261 Z "></path><path fill="rgb(207,207,207)" stroke="rgb(207,207,207)" stroke-width="1" opacity="1" d="M 407.5 261 L 408 264.5 L 407 264.5 L 407.5 261 Z "></path><path fill="rgb(207,207,207)" stroke="rgb(207,207,207)" stroke-width="1" opacity="1" d="M 176.5 271 L 175.5 273 L 176.5 271 Z "></path><path fill="rgb(207,207,207)" stroke="rgb(207,207,207)" stroke-width="1" opacity="1" d="M 266.5 278 L 267 280.5 L 266 280.5 L 266.5 278 Z "></path><path fill="rgb(207,207,207)" stroke="rgb(207,207,207)" stroke-width="1" opacity="1" d="M 166.5 284 L 167 286.5 L 166 286.5 L 166.5 284 Z "></path><path fill="rgb(207,207,207)" stroke="rgb(207,207,207)" stroke-width="1" opacity="1" d="M 130.5 353 L 131.5 355 L 130.5 353 Z "></path><path fill="rgb(207,207,207)" stroke="rgb(207,207,207)" stroke-width="1" opacity="1" d="M 369.5 353 L 367.5 356 L 369.5 353 Z "></path><path fill="rgb(207,207,207)" stroke="rgb(207,207,207)" stroke-width="1" opacity="1" d="M 127.5 356 L 129.5 359 L 127.5 356 Z "></path><path fill="rgb(207,207,207)" stroke="rgb(207,207,207)" stroke-width="1" opacity="1" d="M 372.5 356 L 370.5 359 L 372.5 356 Z "></path><path fill="rgb(207,207,207)" stroke="rgb(207,207,207)" stroke-width="1" opacity="1" d="M 145.5 368 L 147.5 371 L 145.5 368 Z "></path><path fill="rgb(207,207,207)" stroke="rgb(207,207,207)" stroke-width="1" opacity="1" d="M 354.5 368 L 353.5 370 L 354.5 368 Z "></path><path fill="rgb(207,207,207)" stroke="rgb(207,207,207)" stroke-width="1" opacity="1" d="M 141.5 370 L 143.5 373 L 141.5 370 Z "></path><path fill="rgb(207,207,207)" stroke="rgb(207,207,207)" stroke-width="1" opacity="1" d="M 358.5 370 L 356.5 373 L 358.5 370 Z "></path><path fill="rgb(207,207,207)" stroke="rgb(207,207,207)" stroke-width="1" opacity="1" d="M 148.5 376 L 149.5 378 L 148.5 376 Z "></path><path fill="rgb(207,207,207)" stroke="rgb(207,207,207)" stroke-width="1" opacity="1" d="M 152.5 379 L 153.5 381 L 152.5 379 Z "></path><path fill="rgb(207,207,207)" stroke="rgb(207,207,207)" stroke-width="1" opacity="1" d="M 156.5 382 L 157.5 384 L 156.5 382 Z "></path><path fill="rgb(18,18,18)" stroke="rgb(18,18,18)" stroke-width="1" opacity="1" d="M 160.5 215 Q 168.1 213.9 170 218.5 L 173 225.5 L 173 241.5 L 171 249 Q 168.3 250.1 169 247.5 Q 172.3 240.3 171 228.5 L 168 220.5 L 165.5 218 L 160.5 218 L 156 221.5 L 149 233.5 L 146 244.5 Q 147.3 251.3 145 254.5 L 147 263.5 L 150.5 268 L 156.5 269 Q 165.8 265.8 171 258.5 L 182.5 240 L 185 241.5 L 184 259.5 L 190.5 254 L 195 250.5 L 196.5 248 Q 198.8 248.8 198 246.5 L 201.5 242 Q 203.8 241.3 203 243.5 L 203 245.5 L 204 253.5 L 202 258 L 198.5 259 L 196 253.5 L 197 251.5 L 186.5 261 L 184 262.5 L 178 283.5 L 172.5 290 Q 167.1 291.9 168 288.5 Q 165.7 287.3 167 282.5 Q 172.7 270.2 182 261.5 L 183 243.5 L 180 245.5 Q 175.1 258.1 165.5 266 L 158.5 270 L 150.5 270 L 148 269 L 145 264.5 L 143 257.5 L 143 246.5 L 148 228.5 L 155.5 218 L 160.5 215 Z M 200 247 L 198 255 L 200 257 L 202 254 Q 204 246 200 247 Z M 180 267 Q 171 274 168 286 L 171 289 L 173 288 Q 178 281 180 272 L 180 267 Z "></path><path fill="rgb(18,18,18)" stroke="rgb(18,18,18)" stroke-width="1" opacity="1" d="M 298.5 216 Q 300.9 220.1 300 227.5 L 301.5 229 L 317.5 224 L 321 221.5 Q 320.3 217.8 322.5 217 L 324 220.5 L 323.5 222 L 339 221 L 338.5 223 Q 337 220.5 331.5 222 L 322 224 L 321 230.5 L 320 262.5 L 321 268 Q 317.5 269.1 319 261.5 L 318 260.5 L 317.5 251 L 315 255 L 310.5 258 L 307.5 258 Q 302.3 255.3 304 245.5 L 305 242 Q 308.7 240.7 307 246.5 Q 304.8 247.8 306 252.5 L 307 256 L 310.5 256 L 318 248.5 L 319 246.5 L 319 228.5 L 320 225 L 306.5 228 L 301 231 L 301 243.5 L 300 244.5 L 298 261.5 L 293 278.5 L 288.5 285 L 285 283.5 L 283 279.5 L 280 264.5 L 278 230.5 L 276.5 229 L 270 257.5 L 268.5 288 L 267 286.5 L 267 271.5 L 268 270.5 L 268 260.5 L 272 238.5 L 275 227.5 L 277.5 225 L 279 226.5 L 281 235.5 L 282 261.5 L 286 283 L 290 281.5 L 297 259.5 L 300 233.5 L 299 232.5 L 298.5 216 Z "></path><path fill="rgb(18,18,18)" stroke="rgb(18,18,18)" stroke-width="1" opacity="1" d="M 210 222 Q 213.7 220.7 212 226.5 L 209 243.5 L 209 255.5 L 210 255.5 Q 212.7 245.7 219.5 240 L 220 241.5 L 215 249.5 L 219 265.5 L 217 264.5 L 213.5 253 Q 209.3 257.1 209 264 L 207 263.5 L 207 240.5 L 210 222 Z "></path><path fill="rgb(18,18,18)" stroke="rgb(18,18,18)" stroke-width="1" opacity="1" d="M 246.5 229 Q 248.8 228.3 248 230.5 L 244 245.5 L 244 263 L 247 261.5 L 253.5 248 L 254 249.5 L 247 264 Q 241.8 266.1 243 261.5 L 242 260.5 L 241.5 251 L 234.5 255 Q 230.8 252.7 230.5 247 L 224.5 255 L 221 253.5 Q 219.9 244.4 224.5 241 Q 227.1 240.2 226 243.5 Q 222.3 246.9 223 253 L 226 251.5 L 230 244 L 233 245.5 Q 231.5 251.5 234.5 253 L 236.5 253 L 242 248.5 L 243 238.5 L 246.5 229 Z "></path><path fill="rgb(18,18,18)" stroke="rgb(18,18,18)" stroke-width="1" opacity="1" d="M 328.5 229 L 329 233.5 L 327 240.5 L 327 260.5 L 328 260.5 L 333 247 L 335.5 246 L 337 247.5 L 337 256 L 342 252.5 L 345 242 Q 348 240.8 347 244.5 L 346 245.5 L 346 253.5 L 347 256 L 350.5 256 L 358.5 248 L 359 249.5 L 351.5 257 L 347.5 258 L 343.5 253 L 337.5 258 L 336 256.5 L 334.5 249 L 331 254.5 L 328 266 Q 325.3 267.1 326 264.5 L 325 263.5 L 324 251.5 L 325 250.5 L 325 238.5 L 328.5 229 Z "></path><path fill="rgb(18,18,18)" stroke="rgb(18,18,18)" stroke-width="1" opacity="1" d="M 307 232 L 310 233.5 L 308.5 236 L 307 232 Z "></path><path fill="rgb(18,18,18)" stroke="rgb(18,18,18)" stroke-width="1" opacity="1" d="M 347 232 Q 350.3 230.9 349 235 Q 345.7 236.1 347 232 Z "></path><path fill="rgb(170,170,170)" stroke="rgb(170,170,170)" stroke-width="1" opacity="1" d="M 234.5 88 L 239 88.5 L 234.5 89 L 234.5 88 Z "></path><path fill="rgb(170,170,170)" stroke="rgb(170,170,170)" stroke-width="1" opacity="1" d="M 261.5 88 L 266 88.5 L 261.5 89 L 261.5 88 Z "></path><path fill="rgb(170,170,170)" stroke="rgb(170,170,170)" stroke-width="1" opacity="1" d="M 233.5 92 L 236 92.5 L 233.5 93 L 233.5 92 Z "></path><path fill="rgb(170,170,170)" stroke="rgb(170,170,170)" stroke-width="1" opacity="1" d="M 264.5 92 L 267 92.5 L 264.5 93 L 264.5 92 Z "></path><path fill="rgb(170,170,170)" stroke="rgb(170,170,170)" stroke-width="1" opacity="1" d="M 149.5 127 L 147.5 130 L 149.5 127 Z "></path><path fill="rgb(170,170,170)" stroke="rgb(170,170,170)" stroke-width="1" opacity="1" d="M 350.5 127 L 352.5 130 L 350.5 127 Z "></path><path fill="rgb(170,170,170)" stroke="rgb(170,170,170)" stroke-width="1" opacity="1" d="M 140.5 130 L 138.5 133 L 140.5 130 Z "></path><path fill="rgb(170,170,170)" stroke="rgb(170,170,170)" stroke-width="1" opacity="1" d="M 360.5 131 L 361.5 133 L 360.5 131 Z "></path><path fill="rgb(170,170,170)" stroke="rgb(170,170,170)" stroke-width="1" opacity="1" d="M 138.5 137 L 137.5 139 L 138.5 137 Z "></path><path fill="rgb(170,170,170)" stroke="rgb(170,170,170)" stroke-width="1" opacity="1" d="M 361.5 137 L 363.5 140 L 361.5 137 Z "></path><path fill="rgb(170,170,170)" stroke="rgb(170,170,170)" stroke-width="1" opacity="1" d="M 132.5 138 L 130.5 141 L 132.5 138 Z "></path><path fill="rgb(170,170,170)" stroke="rgb(170,170,170)" stroke-width="1" opacity="1" d="M 367.5 138 L 369.5 141 L 367.5 138 Z "></path><path fill="rgb(170,170,170)" stroke="rgb(170,170,170)" stroke-width="1" opacity="1" d="M 370.5 147 L 372.5 150 L 370.5 147 Z "></path><path fill="rgb(170,170,170)" stroke="rgb(170,170,170)" stroke-width="1" opacity="1" d="M 128.5 148 L 127.5 150 L 128.5 148 Z "></path><path fill="rgb(170,170,170)" stroke="rgb(170,170,170)" stroke-width="1" opacity="1" d="M 334.5 222 L 338 222.5 L 334.5 223 L 334.5 222 Z "></path><path fill="rgb(170,170,170)" stroke="rgb(170,170,170)" stroke-width="1" opacity="1" d="M 246.5 228 L 248 228.5 L 245.5 230 L 246.5 228 Z "></path><path fill="rgb(170,170,170)" stroke="rgb(170,170,170)" stroke-width="1" opacity="1" d="M 170.5 231 L 171 236.5 L 170 236.5 L 170.5 231 Z "></path><path fill="rgb(170,170,170)" stroke="rgb(170,170,170)" stroke-width="1" opacity="1" d="M 347.5 231 L 346.5 233 L 347.5 231 Z "></path><path fill="rgb(170,170,170)" stroke="rgb(170,170,170)" stroke-width="1" opacity="1" d="M 88.5 234 L 89 238.5 L 88 238.5 L 88.5 234 Z "></path><path fill="rgb(170,170,170)" stroke="rgb(170,170,170)" stroke-width="1" opacity="1" d="M 411.5 234 L 412 238.5 L 411 238.5 L 411.5 234 Z "></path><path fill="rgb(170,170,170)" stroke="rgb(170,170,170)" stroke-width="1" opacity="1" d="M 306.5 241 L 308 243.5 L 307 243.5 L 306.5 241 Z "></path><path fill="rgb(170,170,170)" stroke="rgb(170,170,170)" stroke-width="1" opacity="1" d="M 209.5 248 L 210 250.5 L 209 250.5 L 209.5 248 Z "></path><path fill="rgb(170,170,170)" stroke="rgb(170,170,170)" stroke-width="1" opacity="1" d="M 303.5 248 L 304 250.5 L 303 250.5 L 303.5 248 Z "></path><path fill="rgb(170,170,170)" stroke="rgb(170,170,170)" stroke-width="1" opacity="1" d="M 241.5 252 L 242 256.5 L 241 256.5 L 241.5 252 Z "></path><path fill="rgb(170,170,170)" stroke="rgb(170,170,170)" stroke-width="1" opacity="1" d="M 213.5 253 L 212.5 255 L 213.5 253 Z "></path><path fill="rgb(170,170,170)" stroke="rgb(170,170,170)" stroke-width="1" opacity="1" d="M 88.5 261 L 89 265.5 L 88 265.5 L 88.5 261 Z "></path><path fill="rgb(170,170,170)" stroke="rgb(170,170,170)" stroke-width="1" opacity="1" d="M 167.5 261 L 166.5 263 L 167.5 261 Z "></path><path fill="rgb(170,170,170)" stroke="rgb(170,170,170)" stroke-width="1" opacity="1" d="M 244.5 261 L 245.5 263 L 244.5 261 Z "></path><path fill="rgb(170,170,170)" stroke="rgb(170,170,170)" stroke-width="1" opacity="1" d="M 411.5 261 L 412 265.5 L 411 265.5 L 411.5 261 Z "></path><path fill="rgb(170,170,170)" stroke="rgb(170,170,170)" stroke-width="1" opacity="1" d="M 180.5 263 L 179.5 265 L 180.5 263 Z "></path><path fill="rgb(170,170,170)" stroke="rgb(170,170,170)" stroke-width="1" opacity="1" d="M 169.5 290 L 172 290.5 L 169.5 291 L 169.5 290 Z "></path><path fill="rgb(170,170,170)" stroke="rgb(170,170,170)" stroke-width="1" opacity="1" d="M 128.5 351 L 129.5 353 L 128.5 351 Z "></path><path fill="rgb(170,170,170)" stroke="rgb(170,170,170)" stroke-width="1" opacity="1" d="M 371.5 351 L 370.5 353 L 371.5 351 Z "></path><path fill="rgb(170,170,170)" stroke="rgb(170,170,170)" stroke-width="1" opacity="1" d="M 130.5 359 L 132.5 362 L 130.5 359 Z "></path><path fill="rgb(170,170,170)" stroke="rgb(170,170,170)" stroke-width="1" opacity="1" d="M 369.5 359 L 367.5 362 L 369.5 359 Z "></path><path fill="rgb(170,170,170)" stroke="rgb(170,170,170)" stroke-width="1" opacity="1" d="M 137.5 361 L 138.5 363 L 137.5 361 Z "></path><path fill="rgb(170,170,170)" stroke="rgb(170,170,170)" stroke-width="1" opacity="1" d="M 362.5 361 L 361.5 363 L 362.5 361 Z "></path><path fill="rgb(170,170,170)" stroke="rgb(170,170,170)" stroke-width="1" opacity="1" d="M 138.5 367 L 140.5 370 L 138.5 367 Z "></path><path fill="rgb(170,170,170)" stroke="rgb(170,170,170)" stroke-width="1" opacity="1" d="M 361.5 367 L 359.5 370 L 361.5 367 Z "></path><path fill="rgb(170,170,170)" stroke="rgb(170,170,170)" stroke-width="1" opacity="1" d="M 352.5 370 L 350.5 373 L 352.5 370 Z "></path><path fill="rgb(170,170,170)" stroke="rgb(170,170,170)" stroke-width="1" opacity="1" d="M 148.5 371 L 149.5 373 L 148.5 371 Z "></path><path fill="rgb(115,115,115)" stroke="rgb(115,115,115)" stroke-width="1" opacity="1" d="M 243.5 88 L 256.5 88 L 257.5 89 L 276.5 90 L 298.5 95 L 309.5 99 Q 348 115 373 144.5 L 393 173.5 L 404 199.5 L 409 217.5 L 410 229.5 L 411 230.5 L 412 256.5 L 411 257.5 L 410 276.5 L 406 294.5 L 394 324.5 Q 379.1 353.1 355.5 373 Q 330.6 395.1 294.5 406 L 263.5 412 L 236.5 412 L 205.5 406 Q 187.1 400.4 171.5 392 Q 145.1 376.9 126 354.5 Q 107.5 333 97 303.5 L 90 276.5 L 89 257.5 L 88 256.5 L 88 243.5 L 89 242.5 L 90 223.5 L 94 205.5 L 105 177.5 Q 120.4 147.9 144.5 127 Q 164.1 109.6 190.5 99 L 217.5 91 L 229.5 90 L 230.5 89 L 242.5 89 L 243.5 88 Z M 248 91 L 247 92 L 233 92 L 225 94 L 218 94 L 192 102 L 163 117 L 143 133 Q 121 153 107 181 Q 99 196 95 215 L 92 232 L 92 246 L 91 247 L 93 276 L 97 294 L 102 309 Q 114 337 133 358 Q 153 380 183 394 Q 199 402 219 406 L 231 407 L 232 408 L 242 408 L 243 409 L 258 409 L 259 408 L 277 407 L 309 398 Q 337 386 358 367 Q 383 344 397 311 L 405 286 L 407 276 L 407 269 L 408 268 L 408 255 L 409 254 L 408 233 L 407 232 L 406 220 L 399 195 Q 387 164 367 143 Q 354 128 338 117 L 309 102 L 283 94 L 248 91 Z "></path><path fill="rgb(115,115,115)" stroke="rgb(115,115,115)" stroke-width="1" opacity="1" d="M 157.5 220 L 156.5 222 L 157.5 220 Z "></path><path fill="rgb(115,115,115)" stroke="rgb(115,115,115)" stroke-width="1" opacity="1" d="M 211.5 221 L 212.5 223 L 211.5 221 Z "></path><path fill="rgb(115,115,115)" stroke="rgb(115,115,115)" stroke-width="1" opacity="1" d="M 276.5 229 L 277.5 231 L 276.5 229 Z "></path><path fill="rgb(115,115,115)" stroke="rgb(115,115,115)" stroke-width="1" opacity="1" d="M 173.5 230 L 174 234.5 L 173 234.5 L 173.5 230 Z "></path><path fill="rgb(115,115,115)" stroke="rgb(115,115,115)" stroke-width="1" opacity="1" d="M 308.5 231 L 309.5 233 L 308.5 231 Z "></path><path fill="rgb(115,115,115)" stroke="rgb(115,115,115)" stroke-width="1" opacity="1" d="M 346.5 233 L 347 235 Q 349.7 236.1 349 233.5 L 350 233.5 L 348.5 236 L 346 234.5 L 346.5 233 Z "></path><path fill="rgb(115,115,115)" stroke="rgb(115,115,115)" stroke-width="1" opacity="1" d="M 207.5 237 L 208 239.5 L 207 239.5 L 207.5 237 Z "></path><path fill="rgb(115,115,115)" stroke="rgb(115,115,115)" stroke-width="1" opacity="1" d="M 218.5 240 L 217.5 242 L 218.5 240 Z "></path><path fill="rgb(115,115,115)" stroke="rgb(115,115,115)" stroke-width="1" opacity="1" d="M 318.5 240 L 319 246.5 L 318 246.5 L 318.5 240 Z "></path><path fill="rgb(115,115,115)" stroke="rgb(115,115,115)" stroke-width="1" opacity="1" d="M 327.5 240 L 328 242.5 L 327 242.5 L 327.5 240 Z "></path><path fill="rgb(115,115,115)" stroke="rgb(115,115,115)" stroke-width="1" opacity="1" d="M 278.5 241 L 279 244.5 L 278 244.5 L 278.5 241 Z "></path><path fill="rgb(115,115,115)" stroke="rgb(115,115,115)" stroke-width="1" opacity="1" d="M 209.5 243 L 210 246.5 L 209 246.5 L 209.5 243 Z "></path><path fill="rgb(115,115,115)" stroke="rgb(115,115,115)" stroke-width="1" opacity="1" d="M 231.5 243 L 232.5 245 L 231.5 243 Z "></path><path fill="rgb(115,115,115)" stroke="rgb(115,115,115)" stroke-width="1" opacity="1" d="M 281.5 245 L 282 248.5 L 281 248.5 L 281.5 245 Z "></path><path fill="rgb(115,115,115)" stroke="rgb(115,115,115)" stroke-width="1" opacity="1" d="M 298.5 246 L 299 248.5 L 298 248.5 L 298.5 246 Z "></path><path fill="rgb(115,115,115)" stroke="rgb(115,115,115)" stroke-width="1" opacity="1" d="M 324.5 246 L 325 250.5 L 324 250.5 L 324.5 246 Z "></path><path fill="rgb(115,115,115)" stroke="rgb(115,115,115)" stroke-width="1" opacity="1" d="M 358.5 247 L 360 247.5 L 356.5 250 L 358.5 247 Z "></path><path fill="rgb(115,115,115)" stroke="rgb(115,115,115)" stroke-width="1" opacity="1" d="M 241.5 248 L 239.5 251 L 241.5 248 Z "></path><path fill="rgb(115,115,115)" stroke="rgb(115,115,115)" stroke-width="1" opacity="1" d="M 320.5 249 L 321 262.5 L 320 262.5 L 320.5 249 Z "></path><path fill="rgb(115,115,115)" stroke="rgb(115,115,115)" stroke-width="1" opacity="1" d="M 194.5 250 L 191.5 254 L 194.5 250 Z "></path><path fill="rgb(115,115,115)" stroke="rgb(115,115,115)" stroke-width="1" opacity="1" d="M 225.5 251 L 224.5 253 L 225.5 251 Z "></path><path fill="rgb(115,115,115)" stroke="rgb(115,115,115)" stroke-width="1" opacity="1" d="M 316.5 252 L 315.5 254 L 316.5 252 Z "></path><path fill="rgb(115,115,115)" stroke="rgb(115,115,115)" stroke-width="1" opacity="1" d="M 354.5 254 L 353.5 256 L 354.5 254 Z "></path><path fill="rgb(115,115,115)" stroke="rgb(115,115,115)" stroke-width="1" opacity="1" d="M 200.5 255 L 199.5 257 L 200.5 255 Z "></path><path fill="rgb(115,115,115)" stroke="rgb(115,115,115)" stroke-width="1" opacity="1" d="M 313.5 255 L 312.5 257 L 313.5 255 Z "></path><path fill="rgb(115,115,115)" stroke="rgb(115,115,115)" stroke-width="1" opacity="1" d="M 341.5 255 L 340.5 257 L 341.5 255 Z "></path><path fill="rgb(115,115,115)" stroke="rgb(115,115,115)" stroke-width="1" opacity="1" d="M 324.5 256 L 325 259.5 L 324 259.5 L 324.5 256 Z "></path><path fill="rgb(115,115,115)" stroke="rgb(115,115,115)" stroke-width="1" opacity="1" d="M 345.5 256 L 346.5 258 L 345.5 256 Z "></path><path fill="rgb(115,115,115)" stroke="rgb(115,115,115)" stroke-width="1" opacity="1" d="M 170.5 258 L 169.5 260 L 170.5 258 Z "></path><path fill="rgb(115,115,115)" stroke="rgb(115,115,115)" stroke-width="1" opacity="1" d="M 185.5 261 L 184.5 263 L 185.5 261 Z "></path><path fill="rgb(115,115,115)" stroke="rgb(115,115,115)" stroke-width="1" opacity="1" d="M 318.5 261 L 319 265.5 L 318 265.5 L 318.5 261 Z "></path><path fill="rgb(115,115,115)" stroke="rgb(115,115,115)" stroke-width="1" opacity="1" d="M 179.5 267 L 178.5 269 L 179.5 267 Z "></path><path fill="rgb(115,115,115)" stroke="rgb(115,115,115)" stroke-width="1" opacity="1" d="M 267.5 268 L 268 270.5 L 267 270.5 L 267.5 268 Z "></path><path fill="rgb(115,115,115)" stroke="rgb(115,115,115)" stroke-width="1" opacity="1" d="M 152.5 270 L 157 270.5 L 152.5 271 L 152.5 270 Z "></path><path fill="rgb(115,115,115)" stroke="rgb(115,115,115)" stroke-width="1" opacity="1" d="M 174.5 270 L 173.5 272 L 174.5 270 Z "></path><path fill="rgb(115,115,115)" stroke="rgb(115,115,115)" stroke-width="1" opacity="1" d="M 173.5 286 L 172.5 288 L 173.5 286 Z "></path></svg>